<svg width="103" height="87" viewBox="0 0 103 87" fill="none" xmlns="http://www.w3.org/2000/svg">
<path d="M43.5308 43.7537C44.7686 39.1342 49.5169 36.3928 54.1363 37.6306V37.6306C54.8754 37.8286 55.3141 38.5883 55.116 39.3275L44.7093 78.1658C43.4715 82.7852 38.7233 85.5266 34.1038 84.2889V84.2889C33.3647 84.0908 32.9261 83.3311 33.1241 82.592L43.5308 43.7537Z" fill="#1A1A1A"/>
<path d="M52.7391 8.3643C53.9769 3.74483 58.7252 1.00342 63.3446 2.2412V2.2412C64.0837 2.43925 64.5224 3.19897 64.3243 3.93808L59.5314 21.8254C58.2937 26.4448 53.5454 29.1863 48.9259 27.9485V27.9485C48.1868 27.7504 47.7482 26.9907 47.9463 26.2516L52.7391 8.3643Z" fill="#1A1A1A"/>
<path d="M67.021 14.7122C66.5314 14.1242 66.6112 13.2506 67.1993 12.761V12.761C70.8745 9.70086 76.3346 10.1995 79.3947 13.8748L98.8195 37.2043C100.594 39.3359 100.305 42.5028 98.1735 44.2776V44.2776C96.0419 46.0525 92.875 45.7633 91.1002 43.6316L67.021 14.7122Z" fill="#1A1A1A"/>
<path d="M91.7727 37.2606C93.9907 35.4297 97.2729 35.7435 99.1038 37.9614V37.9614C100.935 40.1794 100.621 43.4616 98.403 45.2926L62.9353 74.5708C59.1112 77.7275 53.4522 77.1865 50.2954 73.3625V73.3625C49.7903 72.7506 49.8769 71.8452 50.4888 71.3401L91.7727 37.2606Z" fill="#1A1A1A"/>
<path d="M25.1384 39.6379C28.8154 36.5799 34.2751 37.0817 37.3331 40.7587V40.7587C37.8224 41.347 37.7421 42.2206 37.1538 42.7099L10.2845 65.056C8.15182 66.8297 4.98515 66.5386 3.21151 64.406V64.406C1.43787 62.2733 1.72891 59.1066 3.86156 57.333L25.1384 39.6379Z" fill="#1A1A1A"/>
<path d="M28.6715 79.3697C29.1597 79.9589 29.0778 80.8323 28.4885 81.3205V81.3205C24.8059 84.3718 19.3471 83.8599 16.2959 80.1773L3.00983 64.1421C1.34761 62.136 1.62644 59.1621 3.63261 57.4999L3.86752 57.3053C6.00343 55.5356 9.16956 55.8324 10.9393 57.9683L28.6715 79.3697Z" fill="#1A1A1A"/>
</svg>
